<svg width="180" height="180" viewBox="0 0 180 180" fill="none" xmlns="http://www.w3.org/2000/svg">
<rect width="180" height="180" fill="#0B64F4"/>
<path d="M130 94.9983C130 119.998 112.5 132.498 91.7 139.748C90.6108 140.117 89.4277 140.1 88.35 139.698C67.5 132.498 50 119.998 50 94.9983V59.9983C50 58.6723 50.5268 57.4005 51.4645 56.4628C52.4021 55.5251 53.6739 54.9983 55 54.9983C65 54.9983 77.5 48.9983 86.2 41.3983C87.2593 40.4933 88.6068 39.9961 90 39.9961C91.3932 39.9961 92.7407 40.4933 93.8 41.3983C102.55 49.0483 115 54.9983 125 54.9983C126.326 54.9983 127.598 55.5251 128.536 56.4628C129.473 57.4005 130 58.6723 130 59.9983V94.9983Z" stroke="white" stroke-width="10" stroke-linecap="round" stroke-linejoin="round"/>
<path d="M75 90L85 100L105 80" stroke="white" stroke-width="10" stroke-linecap="round" stroke-linejoin="round"/>
</svg>
