<svg width="256" height="256" viewBox="0 0 256 256" fill="none" xmlns="http://www.w3.org/2000/svg">
<g clip-path="url(#clip0_9633_15158)">
<circle cx="128" cy="128" r="126" fill="white" stroke="#3AC0A1" stroke-width="4"/>
<path fill-rule="evenodd" clip-rule="evenodd" d="M224 111.333C224 122.011 215.225 130.667 204.4 130.667C193.575 130.667 184.8 122.011 184.8 111.333C184.8 100.656 193.575 92 204.4 92C215.225 92 224 100.656 224 111.333ZM139.939 175.239C143.439 178.713 145.6 183.499 145.6 188.783C145.6 199.396 136.878 208 126.118 208C115.358 208 106.636 199.396 106.636 188.783C106.636 183.519 108.782 178.749 112.258 175.279C118.798 168.862 122.786 159.857 122.786 150.04C122.786 140.333 118.773 131.237 112.361 124.839H112.374C105.869 118.388 96.7426 114.45 86.7903 114.45C76.949 114.45 67.8178 118.409 61.3313 124.733C57.8004 128.253 52.8994 130.434 47.4828 130.434C36.7222 130.434 28 121.831 28 111.217C28 100.604 36.7222 92 47.4828 92C52.789 92 57.6 94.0927 61.1136 97.4869C67.625 103.987 76.7993 107.98 86.7948 107.98C96.7373 107.98 105.869 104.04 112.371 97.5995C115.894 94.139 120.753 92 126.118 92C136.878 92 145.6 100.604 145.6 111.217C145.6 116.445 143.483 121.186 140.049 124.651L139.982 124.711C133.392 131.132 129.345 140.185 129.345 150.044C129.345 159.852 133.411 168.825 139.939 175.239Z" fill="url(#paint0_linear_9633_15158)"/>
</g>
<defs>
<linearGradient id="paint0_linear_9633_15158" x1="23772.3" y1="5104.86" x2="-4116.28" y2="5104.86" gradientUnits="userSpaceOnUse">
<stop stop-color="#3AC0A1"/>
<stop offset="1" stop-color="#9EE19D"/>
</linearGradient>
<clipPath id="clip0_9633_15158">
<rect width="256" height="256" fill="white"/>
</clipPath>
</defs>
</svg>
